<svg width="48" height="42" fill="none" xmlns="http://www.w3.org/2000/svg"><g clip-path="url(#clip0_14_2217)"><path d="M39.238 8.27H7.826v33.714h31.412V8.27z" fill="url(#paint0_linear_14_2217)"/><path d="M7.696 8.27c.037 0 .075.016.13.033v33.665c-2.432.19-4.485-.423-6.115-1.994C.557 38.86 0 37.548 0 36.064V20.31c0-2.003-.006-4.007-.006-6.011 0-2.421 1.305-4.181 3.705-5.373 1.234-.606 2.605-.698 3.997-.655z" fill="url(#paint1_linear_14_2217)"/><path d="M33.751 8.265h2.941v33.708h-26.32V8.275h3.124v-.352c0-1.207.005-2.42-.005-3.628-.011-.845.216-1.582.877-2.156a2.4 2.4 0 011.608-.606c1.88-.006 3.754-.006 5.633-.006 3.157 0 6.32.006 9.478 0 .828 0 1.516.271 2.058.9.433.503.595 1.093.595 1.754-.005 1.273 0 2.545 0 3.818-.005.07 0 .152.011.266zm-16.865 0h4.815c2.795 0 5.595 0 8.39.005.221 0 .27-.07.27-.282-.01-.947 0-1.895 0-2.843 0-.076-.01-.152-.022-.233H16.886v3.353z" fill="#fff"/><mask id="a" style="mask-type:alpha" maskUnits="userSpaceOnUse" x="10" y="1" width="27" height="41"><path d="M33.751 8.265h2.941v33.708h-26.32V8.275h3.124v-.352c0-1.207.005-2.42-.005-3.628-.011-.845.216-1.582.877-2.156a2.4 2.4 0 011.608-.606c1.88-.006 3.754-.006 5.633-.006 3.157 0 6.32.006 9.478 0 .828 0 1.516.271 2.058.9.433.503.595 1.093.595 1.754-.005 1.273 0 2.545 0 3.818-.005.07 0 .152.011.266zm-16.865 0h4.815c2.795 0 5.595 0 8.39.005.221 0 .27-.07.27-.282-.01-.947 0-1.895 0-2.843 0-.076-.01-.152-.022-.233H16.886v3.353z" fill="#F7F9FC"/></mask><g mask="url(#a)"><path d="M34.292 0H12.395v8.275h21.897V0z" fill="url(#paint2_linear_14_2217)"/></g><path d="M47.22 14.211c0-2.231-1.218-3.894-3.384-5.102-1.332-.742-2.843-.882-4.392-.85-.239.006-.206.13-.206.26v11.693c0 6.851 0 13.697-.006 20.548v1.218c.975.033 1.901.038 2.811-.178 3.077-.726 5.172-3.017 5.172-5.72.011-7.284.006-14.58.006-21.869z" fill="url(#paint3_linear_14_2217)"/><path d="M26.1 27.616V31.894c0 .45-.228.688-.672.688-1.224.005-2.448.005-3.672 0-.406 0-.634-.255-.634-.683V27.87v-.255h-4.23c-.525 0-.742-.21-.742-.736v-3.493c0-.531.212-.742.737-.742H21.117v-.228-4.03c0-.497.222-.714.72-.714h3.493c.547 0 .759.206.759.764.005 1.332 0 2.659 0 3.991v.222h.232c1.343 0 2.687 0 4.03.006.493 0 .704.216.704.71v3.509c0 .536-.206.742-.731.742-1.338 0-2.676 0-4.008.005-.054-.005-.12-.005-.217-.005z" fill="url(#paint4_linear_14_2217)"/></g><defs><linearGradient id="paint0_linear_14_2217" x1="7.827" y1="25.125" x2="39.237" y2="25.125" gradientUnits="userSpaceOnUse"><stop stop-color="#B0F4FF"/><stop offset="1" stop-color="#69DCFC"/></linearGradient><linearGradient id="paint1_linear_14_2217" x1="0" y1="25.13" x2="7.826" y2="25.13" gradientUnits="userSpaceOnUse"><stop stop-color="#6CBCFC"/><stop offset="1" stop-color="#458DFC"/></linearGradient><linearGradient id="paint2_linear_14_2217" x1="12.393" y1="4.137" x2="34.291" y2="4.137" gradientUnits="userSpaceOnUse"><stop stop-color="#6CBCFC"/><stop offset="1" stop-color="#458DFC"/></linearGradient><linearGradient id="paint3_linear_14_2217" x1="39.234" y1="25.127" x2="47.221" y2="25.127" gradientUnits="userSpaceOnUse"><stop stop-color="#6CBCFC"/><stop offset="1" stop-color="#458DFC"/></linearGradient><linearGradient id="paint4_linear_14_2217" x1="16.154" y1="25.132" x2="31.066" y2="25.132" gradientUnits="userSpaceOnUse"><stop stop-color="#6CBCFC"/><stop offset="1" stop-color="#458DFC"/></linearGradient><clipPath id="clip0_14_2217"><path fill="#fff" d="M0 0h47.221v42H0z"/></clipPath></defs></svg>