<svg width="24" height="24" viewBox="0 0 24 24" fill="none" xmlns="http://www.w3.org/2000/svg">
<path d="M13.3137 12.071L8.36372 7.12101C8.18156 6.93241 8.08077 6.67981 8.08305 6.41761C8.08532 6.15541 8.19049 5.9046 8.3759 5.71919C8.56131 5.53379 8.81212 5.42862 9.07432 5.42634C9.33652 5.42406 9.58912 5.52485 9.77772 5.70701L15.4347 11.364C15.6222 11.5515 15.7275 11.8058 15.7275 12.071C15.7275 12.3362 15.6222 12.5905 15.4347 12.778L9.77772 18.435C9.58912 18.6172 9.33652 18.718 9.07432 18.7157C8.81212 18.7134 8.56131 18.6082 8.3759 18.4228C8.19049 18.2374 8.08532 17.9866 8.08305 17.7244C8.08077 17.4622 8.18156 17.2096 8.36372 17.021L13.3137 12.071Z" fill="#21272A"/>
</svg>
