<svg width="14" height="10" viewBox="0 0 14 10" fill="none" xmlns="http://www.w3.org/2000/svg">
<path d="M5.31924 9.22989C5.18797 9.23016 5.05795 9.2045 4.93662 9.1544C4.8153 9.10429 4.70506 9.03071 4.61224 8.93789L0.37024 4.69489C0.274667 4.60271 0.198408 4.49242 0.145915 4.37046C0.0934215 4.24849 0.065744 4.11729 0.0644972 3.98451C0.0632505 3.85174 0.0884595 3.72004 0.138653 3.59711C0.188847 3.47418 0.263021 3.36248 0.356846 3.26852C0.450672 3.17456 0.56227 3.10023 0.68513 3.04986C0.807989 2.99949 0.939649 2.9741 1.07243 2.97516C1.20521 2.97622 1.33645 3.00371 1.45849 3.05603C1.58053 3.10835 1.69093 3.18445 1.78324 3.27989L5.31824 6.81489L11.6832 0.451894C11.8707 0.264253 12.1251 0.158785 12.3904 0.158691C12.6557 0.158598 12.9101 0.263886 13.0977 0.451394C13.2854 0.638902 13.3908 0.89327 13.3909 1.15854C13.391 1.42381 13.2857 1.67825 13.0982 1.86589L6.02624 8.93789C5.93342 9.03071 5.82318 9.10429 5.70186 9.1544C5.58053 9.2045 5.45051 9.23016 5.31924 9.22989Z" fill="#25A249"/>
</svg>
