<svg width="99" height="24" viewBox="0 0 99 24" fill="none" xmlns="http://www.w3.org/2000/svg">
  <path d="M38.99 8.86946V10.7941H36.377V18.7317H33.9746V10.7941H31.3616V8.86946H38.99Z"
    fill="#233348" />
  <path
    d="M42.5981 12.199C42.879 11.7682 43.2303 11.431 43.6517 11.1875C44.0732 10.9346 44.5415 10.8082 45.0566 10.8082V13.351H44.3963C43.7969 13.351 43.3473 13.4821 43.0476 13.7444C42.7479 13.9973 42.5981 14.4468 42.5981 15.0931V18.7317H40.1957V10.8925H42.5981V12.199Z"
    fill="#233348" />
  <path
    d="M45.7272 14.798C45.7272 13.9926 45.8771 13.2855 46.1768 12.6767C46.4858 12.0679 46.9026 11.5996 47.4271 11.2718C47.9516 10.944 48.537 10.7801 49.1832 10.7801C49.7358 10.7801 50.2181 10.8925 50.6302 11.1173C51.0517 11.342 51.3748 11.6371 51.5996 12.0023V10.8925H54.0019V18.7317H51.5996V17.6219C51.3655 17.9871 51.0376 18.2821 50.6162 18.5069C50.2041 18.7317 49.7217 18.8441 49.1692 18.8441C48.5323 18.8441 47.9516 18.6802 47.4271 18.3524C46.9026 18.0152 46.4858 17.5422 46.1768 16.9335C45.8771 16.3153 45.7272 15.6035 45.7272 14.798ZM51.5996 14.8121C51.5996 14.2127 51.431 13.7397 51.0938 13.3932C50.766 13.0466 50.3633 12.8734 49.8856 12.8734C49.408 12.8734 49.0006 13.0466 48.6634 13.3932C48.3356 13.7303 48.1717 14.1986 48.1717 14.798C48.1717 15.3975 48.3356 15.8751 48.6634 16.231C49.0006 16.5776 49.408 16.7508 49.8856 16.7508C50.3633 16.7508 50.766 16.5776 51.0938 16.231C51.431 15.8845 51.5996 15.4115 51.5996 14.8121Z"
    fill="#233348" />
  <path
    d="M59.6736 12.8874H58.3811V18.7317H55.9788V12.8874H55.1077V10.8925H55.9788V10.6677C55.9788 9.70302 56.255 8.97249 56.8076 8.4761C57.3602 7.97034 58.1704 7.71746 59.2381 7.71746C59.416 7.71746 59.5471 7.72215 59.6314 7.73151V9.76859C59.1725 9.74049 58.8494 9.80605 58.6621 9.96527C58.4748 10.1245 58.3811 10.4101 58.3811 10.8222V10.8925H59.6736V12.8874Z"
    fill="#233348" />
  <path
    d="M60.3248 14.798C60.3248 13.9926 60.4746 13.2855 60.7743 12.6767C61.0834 12.0679 61.5002 11.5996 62.0247 11.2718C62.5492 10.944 63.1345 10.7801 63.7808 10.7801C64.3334 10.7801 64.8157 10.8925 65.2278 11.1173C65.6493 11.342 65.9724 11.6371 66.1972 12.0023V10.8925H68.5995V18.7317H66.1972V17.6219C65.963 17.9871 65.6352 18.2821 65.2137 18.5069C64.8016 18.7317 64.3193 18.8441 63.7667 18.8441C63.1298 18.8441 62.5492 18.6802 62.0247 18.3524C61.5002 18.0152 61.0834 17.5422 60.7743 16.9335C60.4746 16.3153 60.3248 15.6035 60.3248 14.798ZM66.1972 14.8121C66.1972 14.2127 66.0286 13.7397 65.6914 13.3932C65.3636 13.0466 64.9609 12.8734 64.4832 12.8734C64.0055 12.8734 63.5981 13.0466 63.261 13.3932C62.9332 13.7303 62.7693 14.1986 62.7693 14.798C62.7693 15.3975 62.9332 15.8751 63.261 16.231C63.5981 16.5776 64.0055 16.7508 64.4832 16.7508C64.9609 16.7508 65.3636 16.5776 65.6914 16.231C66.0286 15.8845 66.1972 15.4115 66.1972 14.8121Z"
    fill="#233348" />
  <path d="M72.7398 8.33561V18.7317H70.3375V8.33561H72.7398Z" fill="#233348" />
  <path
    d="M77.4591 10.7801C78.0117 10.7801 78.494 10.8925 78.9061 11.1173C79.3276 11.342 79.6507 11.6371 79.8755 12.0023V10.8925H82.2778V18.7177C82.2778 19.4388 82.1327 20.0898 81.8423 20.6704C81.5614 21.2605 81.1259 21.7288 80.5358 22.0753C79.9551 22.4219 79.2293 22.5951 78.3582 22.5951C77.1969 22.5951 76.2556 22.3188 75.5344 21.7662C74.8133 21.223 74.4012 20.4831 74.2981 19.5465H76.6724C76.7473 19.8462 76.9253 20.0804 77.2062 20.249C77.4872 20.4269 77.8338 20.5159 78.2458 20.5159C78.7422 20.5159 79.1356 20.3707 79.4259 20.0804C79.7257 19.7994 79.8755 19.3452 79.8755 18.7177V17.6078C79.6414 17.9731 79.3182 18.2728 78.9061 18.5069C78.494 18.7317 78.0117 18.8441 77.4591 18.8441C76.8129 18.8441 76.2275 18.6802 75.703 18.3524C75.1785 18.0152 74.7618 17.5422 74.4527 16.9335C74.153 16.3153 74.0031 15.6035 74.0031 14.798C74.0031 13.9926 74.153 13.2855 74.4527 12.6767C74.7618 12.0679 75.1785 11.5996 75.703 11.2718C76.2275 10.944 76.8129 10.7801 77.4591 10.7801ZM79.8755 14.8121C79.8755 14.2127 79.7069 13.7397 79.3698 13.3932C79.0419 13.0466 78.6392 12.8734 78.1616 12.8734C77.6839 12.8734 77.2765 13.0466 76.9393 13.3932C76.6115 13.7303 76.4476 14.1986 76.4476 14.798C76.4476 15.3975 76.6115 15.8751 76.9393 16.231C77.2765 16.5776 77.6839 16.7508 78.1616 16.7508C78.6392 16.7508 79.0419 16.5776 79.3698 16.231C79.7069 15.8845 79.8755 15.4115 79.8755 14.8121Z"
    fill="#233348" />
  <path
    d="M83.5382 14.798C83.5382 13.9926 83.688 13.2855 83.9877 12.6767C84.2968 12.0679 84.7136 11.5996 85.2381 11.2718C85.7626 10.944 86.3479 10.7801 86.9942 10.7801C87.5468 10.7801 88.0291 10.8925 88.4412 11.1173C88.8627 11.342 89.1858 11.6371 89.4106 12.0023V10.8925H91.8129V18.7317H89.4106V17.6219C89.1764 17.9871 88.8486 18.2821 88.4272 18.5069C88.0151 18.7317 87.5327 18.8441 86.9801 18.8441C86.3433 18.8441 85.7626 18.6802 85.2381 18.3524C84.7136 18.0152 84.2968 17.5422 83.9877 16.9335C83.688 16.3153 83.5382 15.6035 83.5382 14.798ZM89.4106 14.8121C89.4106 14.2127 89.242 13.7397 88.9048 13.3932C88.577 13.0466 88.1743 12.8734 87.6966 12.8734C87.219 12.8734 86.8115 13.0466 86.4744 13.3932C86.1466 13.7303 85.9827 14.1986 85.9827 14.798C85.9827 15.3975 86.1466 15.8751 86.4744 16.231C86.8115 16.5776 87.219 16.7508 87.6966 16.7508C88.1743 16.7508 88.577 16.5776 88.9048 16.231C89.242 15.8845 89.4106 15.4115 89.4106 14.8121Z"
    fill="#233348" />
  <path
    d="M95.9532 12.199C96.2342 11.7682 96.5854 11.431 97.0069 11.1875C97.4284 10.9346 97.8967 10.8082 98.4118 10.8082V13.351H97.7515C97.1521 13.351 96.7025 13.4821 96.4028 13.7444C96.1031 13.9973 95.9532 14.4468 95.9532 15.0931V18.7317H93.5509V10.8925H95.9532V12.199Z"
    fill="#233348" />
  <path
    d="M24 12C24 18.6274 18.6274 24 12 24C5.37258 24 0 18.6274 0 12C0 5.37258 5.37258 0 12 0C18.6274 0 24 5.37258 24 12Z"
    fill="#458FF6" />
  <path d="M16.2392 9.21834V11.3034H13.4084V19.9024H10.8059V11.3034H7.97502V9.21834H16.2392Z"
    fill="white" />
</svg>
  