<svg height="42" viewBox="0 0 169 42" fill="none" xmlns="http://www.w3.org/2000/svg"><path d="M66.608 15.652v3.288h-4.464V32.5H58.04V18.94h-4.464v-3.288h13.032zM72.772 21.34a5.3 5.3 0 011.8-1.728 4.576 4.576 0 012.4-.648v4.344h-1.128c-1.024 0-1.792.224-2.304.672-.512.432-.768 1.2-.768 2.304V32.5h-4.104V19.108h4.104v2.232zM78.117 25.78c0-1.376.256-2.584.768-3.624.528-1.04 1.24-1.84 2.136-2.4.896-.56 1.896-.84 3-.84.944 0 1.768.192 2.472.576.72.384 1.272.888 1.656 1.512v-1.896h4.104V32.5H88.15v-1.896c-.4.624-.96 1.128-1.68 1.512-.704.384-1.528.576-2.472.576-1.088 0-2.08-.28-2.976-.84-.896-.576-1.608-1.384-2.136-2.424-.512-1.056-.768-2.272-.768-3.648zm10.032.024c0-1.024-.288-1.832-.864-2.424a2.73 2.73 0 00-2.064-.888c-.816 0-1.512.296-2.088.888-.56.576-.84 1.376-.84 2.4s.28 1.84.84 2.448c.576.592 1.272.888 2.088.888a2.73 2.73 0 002.064-.888c.576-.592.864-1.4.864-2.424zM101.942 22.516h-2.208V32.5H95.63v-9.984h-1.488v-3.408h1.488v-.384c0-1.648.472-2.896 1.416-3.744.944-.864 2.328-1.296 4.152-1.296.304 0 .528.008.672.024v3.48c-.784-.048-1.336.064-1.656.336-.32.272-.48.76-.48 1.464v.12h2.208v3.408zM103.055 25.78c0-1.376.256-2.584.768-3.624.528-1.04 1.24-1.84 2.136-2.4.896-.56 1.896-.84 3-.84.944 0 1.768.192 2.472.576.72.384 1.272.888 1.656 1.512v-1.896h4.104V32.5h-4.104v-1.896c-.4.624-.96 1.128-1.68 1.512-.704.384-1.528.576-2.472.576-1.088 0-2.08-.28-2.976-.84-.896-.576-1.608-1.384-2.136-2.424-.512-1.056-.768-2.272-.768-3.648zm10.032.024c0-1.024-.288-1.832-.864-2.424a2.73 2.73 0 00-2.064-.888c-.816 0-1.512.296-2.088.888-.56.576-.84 1.376-.84 2.4s.28 1.84.84 2.448c.576.592 1.272.888 2.088.888a2.73 2.73 0 002.064-.888c.576-.592.864-1.4.864-2.424zM124.264 14.74V32.5h-4.104V14.74h4.104zM132.326 18.916c.944 0 1.768.192 2.472.576.72.384 1.272.888 1.656 1.512v-1.896h4.104v13.368c0 1.232-.248 2.344-.744 3.336-.48 1.008-1.224 1.808-2.232 2.4-.992.592-2.232.888-3.72.888-1.984 0-3.592-.472-4.824-1.416-1.232-.928-1.936-2.192-2.112-3.792h4.056c.128.512.432.912.912 1.2.48.304 1.072.456 1.776.456.848 0 1.52-.248 2.016-.744.512-.48.768-1.256.768-2.328V30.58c-.4.624-.952 1.136-1.656 1.536-.704.384-1.528.576-2.472.576-1.104 0-2.104-.28-3-.84-.896-.576-1.608-1.384-2.136-2.424-.512-1.056-.768-2.272-.768-3.648 0-1.376.256-2.584.768-3.624.528-1.04 1.24-1.84 2.136-2.4.896-.56 1.896-.84 3-.84zm4.128 6.888c0-1.024-.288-1.832-.864-2.424a2.73 2.73 0 00-2.064-.888c-.816 0-1.512.296-2.088.888-.56.576-.84 1.376-.84 2.4s.28 1.84.84 2.448c.576.592 1.272.888 2.088.888a2.73 2.73 0 002.064-.888c.576-.592.864-1.4.864-2.424zM142.711 25.78c0-1.376.256-2.584.768-3.624.528-1.04 1.24-1.84 2.136-2.4.896-.56 1.896-.84 3-.84.944 0 1.768.192 2.472.576.72.384 1.272.888 1.656 1.512v-1.896h4.104V32.5h-4.104v-1.896c-.4.624-.96 1.128-1.68 1.512-.704.384-1.528.576-2.472.576-1.088 0-2.08-.28-2.976-.84-.896-.576-1.608-1.384-2.136-2.424-.512-1.056-.768-2.272-.768-3.648zm10.032.024c0-1.024-.288-1.832-.864-2.424a2.73 2.73 0 00-2.064-.888c-.816 0-1.512.296-2.088.888-.56.576-.84 1.376-.84 2.4s.28 1.84.84 2.448c.576.592 1.272.888 2.088.888a2.73 2.73 0 002.064-.888c.576-.592.864-1.4.864-2.424zM163.92 21.34a5.3 5.3 0 011.8-1.728 4.576 4.576 0 012.4-.648v4.344h-1.128c-1.024 0-1.792.224-2.304.672-.512.432-.768 1.2-.768 2.304V32.5h-4.104V19.108h4.104v2.232z" fill="#233348"/><path d="M41 21c0 11.322-9.178 20.5-20.5 20.5S0 32.322 0 21 9.178.5 20.5.5 41 9.678 41 21z" fill="#458FF6"/><path d="M27.742 16.248v3.562h-4.836V34.5H18.46V19.81h-4.836v-3.562h14.118z" fill="#fff"/></svg>