<svg width="34" height="48" fill="none" xmlns="http://www.w3.org/2000/svg"><g clip-path="url(#clip0_14_2193)"><path d="M32.827 0H1.177C.527 0 0 .52 0 1.162v45.68c0 .642.526 1.162 1.177 1.162h31.65c.65 0 1.177-.52 1.177-1.162V1.162A1.174 1.174 0 0032.827 0z" fill="url(#paint0_linear_14_2193)"/><path d="M30.749 2.07H3.25c-.631 0-1.146.508-1.146 1.136v37.767c0 .627.515 1.131 1.146 1.131H30.75c.635 0 1.146-.508 1.146-1.131V3.206c0-.628-.51-1.136-1.146-1.136z" fill="#fff"/><path d="M22.623 20.027H11.382a.926.926 0 01-.932-.92V8.004c0-.508.417-.92.932-.92h11.24c.515 0 .932.412.932.92v11.099a.929.929 0 01-.931.924z" fill="url(#paint1_linear_14_2193)"/><path d="M17.002 46.76a1.72 1.72 0 001.73-1.708 1.72 1.72 0 00-1.73-1.709 1.72 1.72 0 00-1.73 1.71 1.72 1.72 0 001.73 1.708z" fill="#fff"/><path d="M26.797 25.776H7.203c-.495 0-.9-.4-.9-.889s.405-.889.9-.889h19.59c.495 0 .9.4.9.889a.894.894 0 01-.896.889z" fill="url(#paint2_linear_14_2193)"/><path opacity=".6" d="M23.48 30.702H6.876a.566.566 0 01-.57-.562v-.062c0-.311.258-.561.57-.561H23.48c.316 0 .57.254.57.561v.062a.564.564 0 01-.57.562z" fill="url(#paint3_linear_14_2193)"/><path opacity=".3" d="M20.319 33.83H6.821a.517.517 0 01-.518-.511v-.17c0-.28.234-.511.518-.511h13.494c.285 0 .518.23.518.511v.17a.516.516 0 01-.514.511z" fill="url(#paint4_linear_14_2193)"/><path opacity=".6" d="M22.018 36.728H6.852a.544.544 0 01-.545-.538v-.108c0-.297.245-.539.545-.539h15.166c.3 0 .546.242.546.539v.108a.546.546 0 01-.546.538z" fill="url(#paint5_linear_14_2193)"/><path d="M17.036 13.198a2.038 2.038 0 10-.001-4.077 2.038 2.038 0 000 4.077zm0 1.02c-1.36 0-4.076.682-4.076 2.038v.512c0 .282.23.512.512.512h7.136c.282 0 .512-.23.512-.512v-.512c-.009-1.352-2.724-2.039-4.084-2.039z" fill="#fff"/></g><defs><linearGradient id="paint0_linear_14_2193" x1="2.06" y1="22.752" x2="34.027" y2="25.492" gradientUnits="userSpaceOnUse"><stop stop-color="#6CBCFC"/><stop offset="1" stop-color="#458DFC"/></linearGradient><linearGradient id="paint1_linear_14_2193" x1="9.434" y1="9.748" x2="24.488" y2="17.517" gradientUnits="userSpaceOnUse"><stop stop-color="#B0F4FF"/><stop offset=".086" stop-color="#A3F0FE"/><stop offset=".297" stop-color="#8AE7FD"/><stop offset=".516" stop-color="#77E1FD"/><stop offset=".745" stop-color="#6DDDFC"/><stop offset="1" stop-color="#69DCFC"/></linearGradient><linearGradient id="paint2_linear_14_2193" x1="27.695" y1="24.888" x2="6.306" y2="24.888" gradientUnits="userSpaceOnUse"><stop stop-color="#6CBCFC"/><stop offset="1" stop-color="#458DFC"/></linearGradient><linearGradient id="paint3_linear_14_2193" x1="24.052" y1="30.108" x2="6.306" y2="30.108" gradientUnits="userSpaceOnUse"><stop stop-color="#6CBCFC"/><stop offset="1" stop-color="#458DFC"/></linearGradient><linearGradient id="paint4_linear_14_2193" x1="20.834" y1="33.236" x2="6.306" y2="33.236" gradientUnits="userSpaceOnUse"><stop stop-color="#6CBCFC"/><stop offset="1" stop-color="#458DFC"/></linearGradient><linearGradient id="paint5_linear_14_2193" x1="22.564" y1="36.133" x2="6.306" y2="36.133" gradientUnits="userSpaceOnUse"><stop stop-color="#6CBCFC"/><stop offset="1" stop-color="#458DFC"/></linearGradient><clipPath id="clip0_14_2193"><path fill="#fff" d="M0 0h34v48H0z"/></clipPath></defs></svg>