<svg width="35" height="48" fill="none" xmlns="http://www.w3.org/2000/svg"><g clip-path="url(#clip0_14_2170)"><path d="M34.931 14.954l-.108 22.475-.018 4.348c-.018 3.454-3.301 6.241-7.342 6.223L7.28 47.91C3.247 47.883-.018 45.069 0 41.605l.126-26.823C.136 11.986 2.3 9.623 5.258 8.84l.01-1.443v-.74l24.595.117-.01 2.183c2.95.82 5.087 3.193 5.078 5.998z" fill="url(#paint0_linear_14_2170)"/><path d="M31.694 1.001V1.2l-.018 2.345-.018 2.3v.279c0 .433-.361.785-.794.785h-.19l-1.19-.01-1.308-.008-1.19-.01-1.308-.008-1.209-.018-1.307-.01-1.19-.008-1.318-.01-1.2-.009-1.307-.009-1.19-.018-1.308-.009-1.19-.009-1.318-.009-1.2-.009-1.298-.009-1.19-.009-1.308-.009-1.2-.009-1.308-.009-1.2-.009H4.25a.793.793 0 01-.785-.793V5.7L3.5 1.064v-.28C3.5.353 3.86 0 4.303 0h.189L7 .018l2.508.018 1.2.01 1.307.008 1.19.01 2.499.026L17.01.1l1.19.008 1.308.01 1.19.008 1.308.01 1.19.008 1.309.01 1.19.008 1.326.018 1.19.01 1.308.008 1.2.01h.19c.441.008.784.36.784.793z" fill="url(#paint1_linear_14_2170)"/><path d="M31.694 1.209l-.018 2.335-.018 2.3-1.074-.009-1.424-.009-1.308-.009h-1.434l-1.308-.009-1.425-.009-1.308-.009h-1.434l-1.308-.009-1.434-.009-1.299-.009h-1.434l-1.307-.009-1.434-.009-1.308-.009H9.994l-1.308-.009-1.434-.009-1.308-.009H4.52L3.464 5.7 3.5 1.064l2.507.01 2.733.017 1.308.01 1.434.008h1.308l2.733.018 1.433.01h1.308l1.434.008 1.3.01 1.433.008h1.308l1.434.01 1.299.008 1.434.01h1.308l1.434.008 1.046.01z" fill="url(#paint2_linear_14_2170)"/><path d="M34.905 19.7L.1 19.534.027 34.967l34.805.164.073-15.432z" fill="#F7F9FC"/><path d="M34.911 19.7L.106 19.534l-.013 2.778 34.805.164.013-2.778z" fill="#FBFCF7"/><path d="M13.674 25.74l-2.246-.01.009-2.254-3.094-.01-.009 2.246-2.246-.009-.018 3.085 2.246.009-.009 2.255 3.094.009.009-2.246 2.245.01.019-3.085z" fill="url(#paint3_linear_14_2170)"/><path d="M28.933 26.488l-11.13-.054a.543.543 0 01-.54-.541v-.253c0-.297.243-.54.54-.54l11.13.053c.298 0 .542.244.542.541v.253a.543.543 0 01-.542.541z" fill="url(#paint4_linear_14_2170)"/><path opacity=".5" d="M28.925 29.798l-11.13-.054a.543.543 0 01-.541-.541v-.253c0-.297.243-.54.541-.54l11.13.053c.297 0 .54.244.54.541v.253a.543.543 0 01-.54.541z" fill="url(#paint5_linear_14_2170)"/><path opacity=".08" d="M3.464 1.001V1.2l.018 2.344.018 2.291v.28c0 .433.36.785.794.785h.189l1.2-.01 1.307-.008 1.19-.01 1.309-.008 1.19-.01 1.308-.008 1.19-.01 1.308-.009 1.2-.009 1.308-.009 1.19-.009 1.308-.009 1.19-.009 1.308-.009 1.2-.009 1.308-.009 1.19-.009 1.308-.009 1.19-.009 1.308-.009 1.2-.009h.19c.432 0 .784-.36.784-.793V5.709C17.714 6.313 4.249.207 4.249.207a.799.799 0 00-.785.794z" fill="#1A6FB5"/></g><defs><linearGradient id="paint0_linear_14_2170" x1="0" y1="6.4" x2="32.267" y2="50.933" gradientUnits="userSpaceOnUse"><stop stop-color="#6CBCFC"/><stop offset="1" stop-color="#458DFC"/></linearGradient><linearGradient id="paint1_linear_14_2170" x1="-355.725" y1="-22.549" x2="-15.588" y2="1.142" gradientUnits="userSpaceOnUse"><stop stop-color="#B0F4FF"/><stop offset=".053" stop-color="#A9F2FF"/><stop offset=".288" stop-color="#8DE8FE"/><stop offset=".525" stop-color="#79E1FD"/><stop offset=".762" stop-color="#6DDDFC"/><stop offset="1" stop-color="#69DCFC"/></linearGradient><linearGradient id="paint2_linear_14_2170" x1="3.468" y1="3.452" x2="31.695" y2="3.452" gradientUnits="userSpaceOnUse"><stop stop-color="#B0F4FF"/><stop offset=".053" stop-color="#A9F2FF"/><stop offset=".288" stop-color="#8DE8FE"/><stop offset=".525" stop-color="#79E1FD"/><stop offset=".762" stop-color="#6DDDFC"/><stop offset="1" stop-color="#69DCFC"/></linearGradient><linearGradient id="paint3_linear_14_2170" x1="12.412" y1="24.336" x2="7.114" y2="30.445" gradientUnits="userSpaceOnUse"><stop stop-color="#6CBCFC"/><stop offset="1" stop-color="#458DFC"/></linearGradient><linearGradient id="paint4_linear_14_2170" x1="29.582" y1="25.791" x2="16.313" y2="25.791" gradientUnits="userSpaceOnUse"><stop stop-color="#6CBCFC"/><stop offset="1" stop-color="#458DFC"/></linearGradient><linearGradient id="paint5_linear_14_2170" x1="17.253" y1="29.101" x2="29.466" y2="29.101" gradientUnits="userSpaceOnUse"><stop stop-color="#6CBCFC"/><stop offset="1" stop-color="#458DFC"/></linearGradient><clipPath id="clip0_14_2170"><path fill="#fff" d="M0 0h34.931v48H0z"/></clipPath></defs></svg>