<svg viewBox="-5 -5 24 24" fill="none" xmlns="http://www.w3.org/2000/svg">
<path d="M8.40002 6.40002V1.40002C8.40002 1.13481 8.29467 0.880454 8.10713 0.692918C7.9196 0.505381 7.66524 0.400024 7.40002 0.400024C7.13481 0.400024 6.88045 0.505381 6.69292 0.692918C6.50538 0.880454 6.40002 1.13481 6.40002 1.40002V6.40002H1.40002C1.13481 6.40002 0.880454 6.50538 0.692918 6.69292C0.505381 6.88045 0.400024 7.13481 0.400024 7.40002C0.400024 7.66524 0.505381 7.9196 0.692918 8.10713C0.880454 8.29467 1.13481 8.40002 1.40002 8.40002H6.40002V13.4C6.40002 13.6652 6.50538 13.9196 6.69292 14.1071C6.88045 14.2947 7.13481 14.4 7.40002 14.4C7.66524 14.4 7.9196 14.2947 8.10713 14.1071C8.29467 13.9196 8.40002 13.6652 8.40002 13.4V8.40002H13.4C13.6652 8.40002 13.9196 8.29467 14.1071 8.10713C14.2947 7.9196 14.4 7.66524 14.4 7.40002C14.4 7.13481 14.2947 6.88045 14.1071 6.69292C13.9196 6.50538 13.6652 6.40002 13.4 6.40002H8.40002Z" fill="#21272A"/>
</svg>
